<svg xmlns="http://www.w3.org/2000/svg" viewBox="0 0 512 512" width="512" height="512">
  <defs>
    <linearGradient id="purpleGrad" x1="0%" y1="0%" x2="100%" y2="100%">
      <stop offset="0%" stop-color="#0d0114" />
      <stop offset="50%" stop-color="#180224" />
      <stop offset="100%" stop-color="#06000a" />
    </linearGradient>
    <linearGradient id="neonGrad" x1="0%" y1="0%" x2="100%" y2="100%">
      <stop offset="0%" stop-color="#820ad1" />
      <stop offset="100%" stop-color="#b149f2" />
    </linearGradient>
  </defs>
  <!-- Full fill for maskable backgrounds -->
  <rect width="512" height="512" fill="url(#purpleGrad)"/>
  
  <!-- Safe zone visual circle helper (keeps layout centralized with safe 15% margins) -->
  <circle cx="256" cy="256" r="140" fill="none" stroke="rgba(177, 73, 242, 0.08)" stroke-width="4" stroke-dasharray="10 20"/>
  
  <!-- Stylized Finances Pocket Graphic (smaller to stay perfectly within 60% safe circle) -->
  <g transform="translate(16, 16) scale(0.93)">
    <path d="M190 205h132c14 0 25 11 25 25v60c0 14-11 25-25 25H190c-14 0-25-11-25-25v-60c0-14 11-25 25-25z" fill="none" stroke="url(#neonGrad)" stroke-width="14" stroke-linejoin="round"/>
    <path d="M165 230l91 42 91-42" fill="none" stroke="url(#neonGrad)" stroke-width="8" stroke-linejoin="round"/>
    <circle cx="256" cy="242" r="14" fill="#fb7185" />
    
    <!-- Sparkles inside safe bounds -->
    <path d="M350 180c-8 0-12-4-12-12c0 8-4 12-12 12c8 0 12 4 12 12c0-8 4-12 12-12z" fill="#fb7185"/>
    <path d="M162 332c-6 0-10-4-10-10c0 6-4 10-10 10c6 0 10 4 10 12c0-8 4-10 10-10z" fill="#b149f2"/>
  </g>
</svg>
